<svg xmlns="http://www.w3.org/2000/svg" viewBox="135 135 285 175">
  <defs><style>.cls-1{fill:#22e39e;}</style></defs>
  <!-- Face -->
  <path class="cls-1" d="M277.27,150.08c-33,0-53.53,11.64-53.53,30.37,0,21.84,21,51.65,53.53,51.65,32,0,53.53-30.14,53.53-51.65C330.8,161.43,310.79,150.08,277.27,150.08Z"/>
  <!-- Oreille gauche -->
  <path class="cls-1" d="M205.16,171.48c-2.9-17.06-18.55-28.48-34.9-25.45-12.06,2.23-21.17,11.71-23.95,23.39l0,.07c-.1.43-.19.86-.28,1.29l0,.15c-.08.43-.15.85-.21,1.28a.78.78,0,0,0,0,.16c-.07.47-.13.95-.18,1.43v.1c0,.44-.07.87-.1,1.3,0,.14,0,.28,0,.42,0,.35,0,.69,0,1,0,.13,0,.27,0,.41s0,.23,0,.35,0,.37,0,.55a34.16,34.16,0,0,0,.44,4.47c1.66,9.74,10.56,16.23,19.88,14.51a16.9,16.9,0,0,0,8.67-4.49,6.65,6.65,0,0,1,7.28-1.32,16.38,16.38,0,0,0,9.56,1.09c9-1.65,15-10.28,14.05-19.58Q205.25,172.07,205.16,171.48Z"/>
  <!-- Oreille droite -->
  <path class="cls-1" d="M409.09,175.62c0-.14,0-.29,0-.43,0-.43-.06-.86-.1-1.29v-.1c0-.48-.11-1-.17-1.43l0-.16c-.06-.43-.13-.85-.21-1.28l0-.15c-.09-.43-.18-.86-.28-1.29a.64.64,0,0,0,0-.07c-2.78-11.68-11.89-21.16-24-23.39-16.35-3-32,8.39-34.9,25.45q-.09.59-.15,1.17c-1,9.3,5.1,17.93,14,19.58a16.38,16.38,0,0,0,9.56-1.09,6.65,6.65,0,0,1,7.28,1.32,16.9,16.9,0,0,0,8.67,4.49c9.33,1.72,18.23-4.77,19.88-14.51a34.16,34.16,0,0,0,.44-4.47c0-.18,0-.37,0-.55s0-.24,0-.35,0-.28,0-.41C409.11,176.31,409.1,176,409.09,175.62Z"/>
  <!-- Sourire -->
  <path class="cls-1" d="M324.73,249.33c-8.67-3.9-20.32,2.75-30.17,4.36a96,96,0,0,1-34.59,0c-9.84-1.61-21.49-8.25-30.16-4.36-4.4,2-5.75,6.84-4,12.63a25.62,25.62,0,0,0,6.61,10.56,66.86,66.86,0,0,0,21.64,13.74,59.63,59.63,0,0,0,46.36,0,67,67,0,0,0,21.63-13.74A25.64,25.64,0,0,0,328.7,262C330.48,256.17,329.13,251.31,324.73,249.33Z"/>
</svg>
