<svg viewBox="-2 4 56 38" xmlns="http://www.w3.org/2000/svg">
  <path d="M12.4601 34.7395C12.7161 34.6349 12.9485 34.4798 13.1433 34.2835L37.5179 9.89588C37.905 9.49898 38.1216 8.96653 38.1216 8.41215C38.1216 7.85776 37.905 7.32532 37.5179 6.92842C37.3228 6.73174 37.0906 6.57563 36.8348 6.4691C36.5791 6.36257 36.3048 6.30772 36.0277 6.30772C35.7506 6.30772 35.4763 6.36257 35.2205 6.4691C34.9648 6.57563 34.7326 6.73174 34.5375 6.92842L11.6401 29.8128L3.7744 21.9471C3.57925 21.7504 3.34711 21.5943 3.09134 21.4878C2.83557 21.3813 2.56125 21.3264 2.28419 21.3264C2.00712 21.3264 1.7328 21.3813 1.47704 21.4878C1.22127 21.5943 0.989124 21.7504 0.793981 21.9471C0.596108 22.1403 0.438865 22.371 0.331506 22.6258C0.224146 22.8806 0.168839 23.1543 0.168839 23.4308C0.168839 23.7074 0.224146 23.9811 0.331506 24.2359C0.438865 24.4907 0.596108 24.7214 0.793981 24.9146L10.1758 34.2835C10.3695 34.4776 10.5998 34.6315 10.8534 34.736C11.107 34.8406 11.3788 34.8937 11.6531 34.8925C11.9296 34.8962 12.2041 34.8442 12.4601 34.7395Z"/>
  <path d="M30.1265 26.8474C30.4623 27.0693 30.8566 27.1859 31.259 27.1823C31.5279 27.1858 31.7945 27.1335 32.0421 27.0286C32.2897 26.9238 32.5128 26.7687 32.6974 26.5732L47.6513 11.6064C47.8413 11.4195 47.9923 11.1966 48.0953 10.9507C48.1983 10.7049 48.2513 10.441 48.2513 10.1745C48.2513 9.90793 48.1983 9.64404 48.0953 9.39821C47.9923 9.15237 47.8413 8.92951 47.6513 8.74259C47.4646 8.55453 47.2425 8.40527 46.9979 8.30341C46.7533 8.20155 46.4909 8.14912 46.2259 8.14912C45.9609 8.14912 45.6985 8.20155 45.4539 8.30341C45.2092 8.40527 44.9872 8.55453 44.8005 8.74259L29.8206 23.7224C29.5343 24.0052 29.3388 24.367 29.2593 24.7615C29.1798 25.156 29.2199 25.5653 29.3743 25.9369C29.5288 26.3085 29.7907 26.6255 30.1265 26.8474Z"/>
  <path d="M43.7379 37.6267L49.621 31.7436C49.8119 31.5576 49.9638 31.3354 50.0679 31.09C50.172 30.8446 50.2263 30.581 50.2275 30.3144C50.2287 30.0479 50.1768 29.7838 50.0749 29.5375C49.973 29.2912 49.8231 29.0676 49.6339 28.8798C49.4461 28.6914 49.223 28.5418 48.9773 28.4398C48.7315 28.3378 48.4681 28.2853 48.202 28.2853C47.936 28.2853 47.6725 28.3378 47.4268 28.4398C47.1811 28.5418 46.958 28.6914 46.7701 28.8798L40.8741 34.75C40.4958 35.1331 40.2837 35.6499 40.2837 36.1883C40.2837 36.7268 40.4958 37.2435 40.8741 37.6267C41.0592 37.82 41.2815 37.9737 41.5275 38.0788C41.7736 38.1839 42.0384 38.238 42.306 38.238C42.5736 38.238 42.8384 38.1839 43.0845 38.0788C43.3306 37.9737 43.5528 37.82 43.7379 37.6267Z"/>
  <path d="M38.2176 32.0935L49.621 20.6902C50.0007 20.3104 50.2141 19.7953 50.2141 19.2583C50.2141 18.7212 50.0007 18.2061 49.621 17.8264C49.2412 17.4466 48.7261 17.2333 48.1891 17.2333C47.652 17.2333 47.137 17.4466 46.7572 17.8264L35.3409 29.2556C34.9682 29.6338 34.7592 30.1435 34.7592 30.6746C34.7592 31.2056 34.9682 31.7153 35.3409 32.0935C35.5281 32.2866 35.7514 32.4408 35.9982 32.5476C36.245 32.6543 36.5104 32.7113 36.7793 32.7155C37.0481 32.7113 37.3135 32.6543 37.5603 32.5476C37.8071 32.4408 38.0305 32.2866 38.2176 32.0935Z"/>
</svg>
