<svg viewBox="0 0 24 24" fill="none" xmlns="http://www.w3.org/2000/svg">
  <path fill-rule="evenodd" clip-rule="evenodd" d="M24 12C24 18.6274 18.6274 24 12 24C5.37258 24 0 18.6274 0 12C0 5.37258 5.37258 0 12 0C15.5833 0 18.7997 1.57056 20.9985 4.06085L12.2624 12.8131L8.40565 8.94918C8.17099 8.71412 7.89238 8.59659 7.56976 8.59659C7.24713 8.59659 6.96852 8.71412 6.73387 8.94918L5.12077 10.5653C4.88614 10.8004 4.7688 11.0795 4.7688 11.4027C4.7688 11.7259 4.88614 12.0051 5.12077 12.2401L11.4266 18.5576C11.6612 18.7927 11.9398 18.9102 12.2624 18.9102C12.585 18.9102 12.8637 18.7927 13.0983 18.5576L23.3986 8.23827C23.7888 9.42146 24 10.6861 24 12Z" fill="#11ABEC"/>
</svg>
