<svg width="163" height="23" viewBox="0 0 163 23" fill="none" xmlns="http://www.w3.org/2000/svg">
<path d="M18.1563 0.42041C19.882 0.42041 20.7451 0.420444 21.3878 0.791504C21.8087 1.03454 22.1584 1.38427 22.4015 1.80518C22.7662 2.43685 22.7724 3.28172 22.7726 4.94873V5.12549C22.7724 6.7925 22.7662 7.63737 22.4015 8.26904C22.1584 8.69001 21.8088 9.03965 21.3878 9.28271C20.7451 9.6538 19.8821 9.65381 18.1563 9.65381C13.5676 9.65381 9.84685 13.3746 9.84677 17.9634C9.84677 19.689 9.8466 20.5521 9.47568 21.1948C9.23267 21.6157 8.88285 21.9654 8.46201 22.2085C7.81925 22.5796 6.95544 22.5796 5.22958 22.5796C3.50399 22.5796 2.64085 22.5796 1.99814 22.2085C1.57725 21.9654 1.2275 21.6158 0.984467 21.1948C0.613513 20.5521 0.613373 19.689 0.613373 17.9634C0.613373 16.2376 0.613396 15.3747 0.984467 14.7319C1.22752 14.311 1.57719 13.9614 1.99814 13.7183C2.64085 13.3472 3.50399 13.3472 5.22958 13.3472C9.81829 13.3472 13.5389 9.62626 13.5392 5.0376C13.5392 3.31172 13.5391 2.44794 13.9102 1.80518C14.1534 1.38417 14.5039 1.03458 14.9249 0.791504C15.5676 0.420634 16.4308 0.42041 18.1563 0.42041Z" fill="#1D342F"/>
<path d="M18.1563 13.3472C19.8821 13.3472 20.7451 13.3472 21.3878 13.7183C21.8088 13.9614 22.1584 14.3109 22.4015 14.7319C22.7725 15.3747 22.7726 16.2376 22.7726 17.9634C22.7726 19.6891 22.7725 20.5521 22.4015 21.1948C22.1584 21.6158 21.8087 21.9654 21.3878 22.2085C20.7451 22.5796 19.8821 22.5796 18.1563 22.5796C16.4305 22.5796 15.5677 22.5796 14.9249 22.2085C14.5038 21.9654 14.1534 21.6159 13.9102 21.1948C13.5394 20.5521 13.5392 19.6889 13.5392 17.9634C13.5392 16.2378 13.5393 15.3747 13.9102 14.7319C14.1534 14.3109 14.5038 13.9614 14.9249 13.7183C15.5676 13.3473 16.4306 13.3472 18.1563 13.3472Z" fill="#1D342F"/>
<path d="M5.22958 0.42041C6.95546 0.42041 7.81924 0.420405 8.46201 0.791504C8.88291 1.03456 9.23261 1.38427 9.47568 1.80518C9.84678 2.44794 9.84677 3.31172 9.84677 5.0376C9.84677 6.76322 9.84675 7.62633 9.47568 8.26904C9.23262 8.68999 8.88293 9.03963 8.46201 9.28271C7.81924 9.65381 6.95546 9.65381 5.22958 9.65381C3.50399 9.65381 2.64085 9.65378 1.99814 9.28271C1.57719 9.03964 1.22754 8.69 0.984467 8.26904C0.613395 7.62633 0.613373 6.76322 0.613373 5.0376C0.613373 3.31172 0.613368 2.44794 0.984467 1.80518C1.22755 1.38427 1.5772 1.03455 1.99814 0.791504C2.64085 0.420435 3.50399 0.42041 5.22958 0.42041Z" fill="#1D342F"/>
<path fill-rule="evenodd" clip-rule="evenodd" d="M52.7269 6.4278C53.781 6.42785 54.7169 6.62578 55.5316 7.02448C56.3613 7.42272 57.0047 7.98115 57.4564 8.69929C57.9259 9.40353 58.1595 10.2236 58.1595 11.1544V20.1456H55.2865V18.7979C55.1491 18.9364 55.0039 19.0685 54.849 19.1925C54.3663 19.5916 53.8095 19.898 53.1801 20.1133L53.181 20.1143C52.5652 20.3307 51.877 20.4375 51.1185 20.4376C50.2111 20.4376 49.4051 20.2809 48.7045 19.9639L48.7015 19.962C48.0187 19.6289 47.4818 19.1772 47.0951 18.6055L47.0941 18.6046C46.706 18.014 46.5141 17.3241 46.514 16.5401C46.514 15.899 46.6351 15.3119 46.8793 14.7813L46.9926 14.5548L47.1273 14.338C47.4605 13.8429 47.927 13.4211 48.5228 13.0723L48.7865 12.9288C49.4206 12.6053 50.1842 12.3732 51.0746 12.2296L55.1644 11.5538V11.1544C55.1644 10.5394 54.936 10.0457 54.4769 9.66315L54.473 9.66022C54.0295 9.26298 53.4273 9.05773 52.6537 9.05769C51.9456 9.05769 51.3285 9.24598 50.7982 9.62019L50.7972 9.62116C50.2798 9.98187 49.8959 10.451 49.6449 11.0313L49.5941 11.1485L49.4799 11.0919L47.0922 9.89753L47.1302 9.79597C47.3813 9.1265 47.7916 8.54168 48.3578 8.04206C48.9215 7.52842 49.5758 7.13074 50.3197 6.84968L50.6088 6.75105C51.2837 6.53578 51.9901 6.4278 52.7269 6.4278ZM51.6508 14.587C50.9319 14.7148 50.4233 14.9443 50.1068 15.2608L50.1049 15.2628C49.7903 15.5624 49.6302 15.9519 49.6302 16.4425C49.6303 16.9118 49.803 17.2923 50.1498 17.5938C50.5136 17.8803 50.9793 18.0274 51.557 18.0274C52.2862 18.0274 52.9139 17.8689 53.4447 17.5567L53.4467 17.5557L53.6469 17.4327C54.0361 17.1777 54.3535 16.8664 54.6 16.4981L54.7172 16.3087C55.0146 15.7758 55.1644 15.1879 55.1644 14.5421V13.9727L51.6508 14.587Z" fill="#1D342F"/>
<path fill-rule="evenodd" clip-rule="evenodd" d="M89.6215 6.4278C90.6264 6.4278 91.5292 6.60142 92.3265 6.95026L92.6185 7.08698C93.2868 7.42024 93.8616 7.85512 94.3412 8.39265L94.5394 8.62019C94.9887 9.16182 95.3361 9.77312 95.5824 10.4532C95.8804 11.2312 96.0297 12.0587 96.0297 12.9337C96.0297 13.0407 96.0279 13.1498 96.0238 13.2608L96.0052 13.5997C95.9886 13.8331 95.9553 14.0515 95.9047 14.254L95.8812 14.3458H86.1049C86.1464 14.8456 86.2661 15.2983 86.4642 15.7051L86.5941 15.9415C86.9114 16.476 87.3244 16.8998 87.8324 17.2159L88.0599 17.3438C88.5997 17.6206 89.201 17.7589 89.8656 17.7589C90.6433 17.7589 91.2936 17.5846 91.8226 17.2423L91.8236 17.2413L92.0258 17.1065C92.4826 16.7806 92.848 16.3765 93.1234 15.8946L93.1801 15.7969L93.2816 15.8467L95.5238 16.9434L95.6254 16.9932L95.5814 17.0987C95.3473 17.6546 94.9987 18.164 94.5375 18.627L94.3334 18.8223C93.7849 19.3209 93.1217 19.7186 92.3461 20.0157H92.3441C91.5819 20.2974 90.7472 20.4376 89.8412 20.4376C88.5062 20.4376 87.3148 20.1327 86.2709 19.5196L86.2689 19.5186C85.2437 18.8902 84.4413 18.0455 83.8627 16.9874C83.2839 15.9124 82.9945 14.7144 82.9945 13.3966C82.9945 12.0468 83.2828 10.8475 83.8627 9.80378L83.8636 9.8028L84.0961 9.42292C84.5794 8.68409 85.1749 8.06985 85.8822 7.58112L86.2455 7.34675C87.2404 6.73355 88.3669 6.42787 89.6215 6.4278ZM89.6215 8.98444C88.9123 8.98452 88.286 9.1658 87.7386 9.52546L87.7367 9.52644C87.1905 9.86977 86.7662 10.37 86.4662 11.0333C86.3427 11.2998 86.2519 11.5935 86.1898 11.9112H92.8705C92.8429 11.5712 92.7629 11.2543 92.6312 10.96L92.6293 10.9561C92.3783 10.3446 91.988 9.86883 91.4574 9.52546L91.4535 9.52351C90.94 9.16563 90.3309 8.98444 89.6215 8.98444Z" fill="#1D342F"/>
<path fill-rule="evenodd" clip-rule="evenodd" d="M110.539 6.4278C111.544 6.4278 112.447 6.60142 113.245 6.95026L113.536 7.08698C114.205 7.42041 114.78 7.85574 115.26 8.39362C115.806 8.98967 116.219 9.6764 116.5 10.4532L116.606 10.7471C116.834 11.4387 116.948 12.168 116.948 12.9337C116.948 13.0407 116.945 13.1498 116.941 13.2608L116.922 13.5997C116.906 13.8332 116.872 14.0514 116.822 14.254L116.799 14.3458H107.022C107.063 14.8456 107.184 15.2983 107.382 15.7051L107.512 15.9415C107.829 16.476 108.242 16.8998 108.75 17.2159L108.978 17.3438C109.518 17.6206 110.119 17.7589 110.784 17.7589C111.561 17.7588 112.212 17.5845 112.741 17.2423L112.742 17.2413L112.943 17.1065C113.4 16.7806 113.766 16.3767 114.041 15.8946L114.097 15.7969L114.2 15.8467L116.441 16.9434L116.543 16.9932L116.499 17.0987C116.232 17.7338 115.815 18.3084 115.251 18.8223C114.703 19.3209 114.039 19.7186 113.263 20.0157C112.501 20.2974 111.665 20.4375 110.759 20.4376C109.424 20.4376 108.233 20.1327 107.189 19.5196L107.187 19.5186C106.162 18.8902 105.359 18.0455 104.781 16.9874C104.202 15.9124 103.913 14.7144 103.912 13.3966C103.912 12.0468 104.201 10.8475 104.781 9.80378L104.782 9.8028L105.014 9.42292C105.497 8.68408 106.093 8.06985 106.8 7.58112L107.163 7.34675C108.158 6.73358 109.285 6.42784 110.539 6.4278ZM110.539 8.98444C109.83 8.98448 109.204 9.16576 108.657 9.52546L108.655 9.52644C108.108 9.86976 107.684 10.3701 107.384 11.0333C107.261 11.2998 107.169 11.5934 107.107 11.9112H113.788C113.761 11.5712 113.68 11.2544 113.548 10.96L113.547 10.9561C113.296 10.3445 112.905 9.86886 112.374 9.52546L112.371 9.52351C111.858 9.16563 111.249 8.98444 110.539 8.98444Z" fill="#1D342F"/>
<path fill-rule="evenodd" clip-rule="evenodd" d="M125.874 6.4278C127.192 6.42784 128.374 6.73286 129.417 7.3448C130.475 7.93998 131.311 8.76782 131.923 9.82526L132.037 10.0225C132.591 11.0199 132.867 12.1538 132.867 13.421C132.867 14.688 132.592 15.8287 132.038 16.8399L131.924 17.0401C131.296 18.0974 130.453 18.9325 129.395 19.544L129.394 19.545C128.335 20.1406 127.161 20.4375 125.874 20.4376C124.587 20.4376 123.404 20.1325 122.329 19.5206C121.404 18.9854 120.642 18.2782 120.045 17.4014L119.8 17.0157C119.171 15.9558 118.857 14.7565 118.857 13.421C118.857 12.0696 119.17 10.8696 119.8 9.82526L120.045 9.43952C120.557 8.68939 121.19 8.06921 121.944 7.57917L122.33 7.3448C123.389 6.73294 124.572 6.4278 125.874 6.4278ZM125.874 9.22858C125.132 9.22858 124.463 9.41 123.866 9.77155L123.865 9.77058C123.283 10.1327 122.819 10.6297 122.471 11.2618C122.141 11.8916 121.974 12.6105 121.974 13.421C121.974 14.2323 122.142 14.9603 122.473 15.6075C122.821 16.2384 123.285 16.7333 123.867 17.0948C124.464 17.4562 125.132 17.6378 125.874 17.6378C126.634 17.6377 127.302 17.4553 127.882 17.0948L128.094 16.9532C128.576 16.6073 128.962 16.1591 129.252 15.6065L129.374 15.3594C129.64 14.7758 129.774 14.1302 129.774 13.421C129.774 12.6106 129.6 11.8917 129.253 11.2618L129.252 11.2589C128.921 10.6276 128.464 10.1324 127.882 9.77058C127.302 9.41005 126.634 9.22862 125.874 9.22858Z" fill="#1D342F"/>
<path fill-rule="evenodd" clip-rule="evenodd" d="M141.794 6.4278C143.112 6.4278 144.294 6.73295 145.337 7.3448C146.395 7.94003 147.232 8.76768 147.844 9.82526L147.958 10.0225C148.512 11.0198 148.787 12.1539 148.787 13.421C148.787 14.6881 148.512 15.8287 147.958 16.8399L147.844 17.0401C147.216 18.0974 146.373 18.9325 145.315 19.544L145.314 19.545C144.255 20.1406 143.081 20.4376 141.794 20.4376C140.507 20.4375 139.325 20.1323 138.25 19.5206L138.249 19.5196C137.324 18.9845 136.563 18.2781 135.966 17.4014L135.72 17.0157C135.091 15.9558 134.778 14.7564 134.778 13.421C134.778 12.0697 135.09 10.8695 135.72 9.82526L135.966 9.43952C136.478 8.6896 137.11 8.06912 137.864 7.57917L138.25 7.3448C139.309 6.73286 140.492 6.42783 141.794 6.4278ZM141.794 9.22858C141.052 9.22861 140.383 9.41002 139.786 9.77155L139.785 9.77058C139.203 10.1327 138.739 10.6298 138.391 11.2618C138.061 11.8916 137.895 12.6105 137.895 13.421C137.895 14.2323 138.061 14.9603 138.393 15.6075C138.741 16.2384 139.205 16.7332 139.786 17.0948C140.384 17.4563 141.052 17.6377 141.794 17.6378C142.554 17.6378 143.222 17.4554 143.802 17.0948L144.014 16.9532C144.496 16.6073 144.882 16.1592 145.172 15.6065L145.173 15.6055L145.295 15.3594C145.561 14.7758 145.695 14.1301 145.695 13.421C145.695 12.6105 145.52 11.8917 145.173 11.2618L145.172 11.2589C144.841 10.6275 144.384 10.1324 143.802 9.77058C143.222 9.41001 142.554 9.22858 141.794 9.22858Z" fill="#1D342F"/>
<path d="M34.3246 10.2178L41.6049 1.74909H45.5043L38.9584 9.41511L45.6371 19.96L45.7543 20.1456H42.0814L42.0453 20.0899L36.8207 11.9161L34.3246 14.8292V20.1456H31.2074V1.74909H34.3246V10.2178Z" fill="#1D342F"/>
<path fill-rule="evenodd" clip-rule="evenodd" d="M75.806 6.4278C76.7344 6.4278 77.5753 6.64421 78.3256 7.07722C79.0916 7.51017 79.7015 8.11058 80.1508 8.87605L80.309 9.16901C80.6536 9.86391 80.8255 10.64 80.8256 11.4952V20.1456H77.8304V12.251C77.8304 11.5994 77.7107 11.0599 77.4789 10.627L77.4769 10.6221C77.2592 10.1712 76.95 9.83231 76.5502 9.60163L76.5453 9.5987C76.1614 9.35312 75.7056 9.22865 75.1732 9.22858C74.6406 9.22858 74.175 9.35373 73.7738 9.60065L73.7709 9.60163C73.4202 9.80392 73.1336 10.0896 72.9105 10.461L72.8187 10.6251C72.5857 11.0756 72.4672 11.6163 72.4672 12.251V20.1456H69.4965V12.251C69.4965 11.5994 69.3767 11.0599 69.1449 10.627L69.1429 10.6221C68.9252 10.1712 68.616 9.83231 68.2162 9.60163L68.2113 9.5987C67.828 9.35347 67.3643 9.22864 66.8148 9.22858C66.2822 9.22858 65.8167 9.35373 65.4154 9.60065L65.4125 9.60163C65.0129 9.83218 64.6952 10.1704 64.4613 10.6212L64.4623 10.6221C64.2444 11.0734 64.1332 11.6151 64.1332 12.251V20.1456H61.1381V6.72077H64.0111V8.04206C64.2762 7.67757 64.6045 7.37286 64.9965 7.12897L65.2836 6.96394C65.9648 6.60612 66.7277 6.42783 67.5697 6.4278C68.6476 6.4278 69.6055 6.71836 70.4388 7.30085L70.5951 7.41022C71.0388 7.732 71.3985 8.1116 71.6752 8.54792C72.0217 8.00285 72.4504 7.56194 72.9623 7.22761L72.9633 7.22663L73.2816 7.03913C74.0357 6.63127 74.8781 6.42786 75.806 6.4278Z" fill="#1D342F"/>
<path d="M101.471 20.1456H98.476V1.4571H101.471V20.1456Z" fill="#1D342F"/>
<path fill-rule="evenodd" clip-rule="evenodd" d="M157.715 6.4278C158.708 6.42786 159.589 6.64346 160.357 7.07722L160.637 7.24714C161.271 7.66272 161.779 8.20654 162.158 8.87702L162.31 9.17097C162.642 9.86757 162.807 10.6512 162.807 11.5196V20.1456H159.836V12.251C159.836 11.5994 159.717 11.0599 159.485 10.627L159.484 10.6251C159.251 10.1751 158.919 9.8354 158.487 9.60358L158.482 9.60163C158.064 9.35399 157.582 9.2286 157.033 9.22858C156.483 9.22858 155.992 9.35398 155.557 9.60261C155.193 9.80511 154.897 10.0906 154.673 10.461L154.581 10.6251C154.348 11.0756 154.229 11.6162 154.229 12.251V20.1456H151.234V6.72077H154.107V8.05085C154.332 7.75268 154.595 7.49307 154.9 7.27644L155.167 7.10261C155.903 6.65153 156.754 6.4278 157.715 6.4278Z" fill="#1D342F"/>
</svg>
