<svg viewBox="0 0 24 23.5" fill="none" xmlns="http://www.w3.org/2000/svg">
  <path d="M18.1563 0.42041C19.882 0.42041 20.7451 0.420444 21.3878 0.791504C21.8087 1.03454 22.1584 1.38427 22.4015 1.80518C22.7662 2.43685 22.7724 3.28172 22.7726 4.94873V5.12549C22.7724 6.7925 22.7662 7.63737 22.4015 8.26904C22.1584 8.69001 21.8088 9.03965 21.3878 9.28271C20.7451 9.6538 19.8821 9.65381 18.1563 9.65381C13.5676 9.65381 9.84685 13.3746 9.84677 17.9634C9.84677 19.689 9.8466 20.5521 9.47568 21.1948C9.23267 21.6157 8.88285 21.9654 8.46201 22.2085C7.81925 22.5796 6.95544 22.5796 5.22958 22.5796C3.50399 22.5796 2.64085 22.5796 1.99814 22.2085C1.57725 21.9654 1.2275 21.6158 0.984467 21.1948C0.613513 20.5521 0.613373 19.689 0.613373 17.9634C0.613373 16.2376 0.613396 15.3747 0.984467 14.7319C1.22752 14.311 1.57719 13.9614 1.99814 13.7183C2.64085 13.3472 3.50399 13.3472 5.22958 13.3472C9.81829 13.3472 13.5389 9.62626 13.5392 5.0376C13.5392 3.31172 13.5391 2.44794 13.9102 1.80518C14.1534 1.38417 14.5039 1.03458 14.9249 0.791504C15.5676 0.420634 16.4308 0.42041 18.1563 0.42041Z" fill="#1D342F"/>
  <path d="M18.1563 13.3472C19.8821 13.3472 20.7451 13.3472 21.3878 13.7183C21.8088 13.9614 22.1584 14.3109 22.4015 14.7319C22.7725 15.3747 22.7726 16.2376 22.7726 17.9634C22.7726 19.6891 22.7725 20.5521 22.4015 21.1948C22.1584 21.6158 21.8087 21.9654 21.3878 22.2085C20.7451 22.5796 19.8821 22.5796 18.1563 22.5796C16.4305 22.5796 15.5677 22.5796 14.9249 22.2085C14.5038 21.9654 14.1534 21.6159 13.9102 21.1948C13.5394 20.5521 13.5392 19.6889 13.5392 17.9634C13.5392 16.2378 13.5393 15.3747 13.9102 14.7319C14.1534 14.3109 14.5038 13.9614 14.9249 13.7183C15.5676 13.3473 16.4306 13.3472 18.1563 13.3472Z" fill="#1D342F"/>
  <path d="M5.22958 0.42041C6.95546 0.42041 7.81924 0.420405 8.46201 0.791504C8.88291 1.03456 9.23261 1.38427 9.47568 1.80518C9.84678 2.44794 9.84677 3.31172 9.84677 5.0376C9.84677 6.76322 9.84675 7.62633 9.47568 8.26904C9.23262 8.68999 8.88293 9.03963 8.46201 9.28271C7.81924 9.65381 6.95546 9.65381 5.22958 9.65381C3.50399 9.65381 2.64085 9.65378 1.99814 9.28271C1.57719 9.03964 1.22754 8.69 0.984467 8.26904C0.613395 7.62633 0.613373 6.76322 0.613373 5.0376C0.613373 3.31172 0.613368 2.44794 0.984467 1.80518C1.22755 1.38427 1.5772 1.03455 1.99814 0.791504C2.64085 0.420435 3.50399 0.42041 5.22958 0.42041Z" fill="#1D342F"/>
</svg>
