<svg xmlns="http://www.w3.org/2000/svg" viewBox="0 0 100 100"><rect width="100" height="100" rx="20" fill="white"/><circle cx="49" cy="52" r="4" fill="#050505"/><path fill="#050505" d="M33.19,48a4,4,0,0,0-3.93,3.07L23,77.07a4,4,0,1,0,7.78,1.87L37,53A4,4,0,0,0,33.19,48Z"/><path fill="#050505" d="M76.65,53.55l-8.81-5.29A15.13,15.13,0,0,0,62,38V34A16,16,0,0,0,46,18H25.88A3.87,3.87,0,0,0,22,21.88V26A16,16,0,0,0,38,42H50l0,0A10.54,10.54,0,0,1,60,52.54V78a4,4,0,0,0,4,4h6a6,6,0,0,0,6-5.92C76,69.93,71.35,65,69.13,63l7.52-4.51A2.86,2.86,0,0,0,76.65,53.55ZM50,34H38a8,8,0,0,1-8-8H46a8,8,0,0,1,8,8Z"/></svg>
