<svg xmlns="http://www.w3.org/2000/svg" viewBox="0 0 90 90" fill="currentColor"><path d="M8.567,43.601h34.734v27.984H8.567V43.601z M65.473,34.085c2.323,0,4.244,1.979,4.244,4.62v6.516  c0,2.641-1.921,4.621-4.244,4.621c-2.317,0-4.234-1.98-4.234-4.621v-6.516C61.239,36.064,63.156,34.085,65.473,34.085z   M24.217,18.355c0.183,0.063,0.371,0.095,0.563,0.095c10.287,0,18.521,8.233,18.521,18.521v3.344H8.567v-3.672  C8.567,27.336,15.317,19.727,24.217,18.355z M35.739,18.112h27.276c10.292,0,18.532,8.238,18.532,18.531v3.672h-8.543v-1.609  c0-4.297-3.333-7.912-7.531-7.912c-4.198,0-7.526,3.615-7.526,7.912v1.609h-6.453c-0.938-0.042-1.719,0.708-1.719,1.645  s0.781,1.683,1.719,1.642h6.453v1.62c0,4.296,3.328,7.906,7.526,7.906c4.197,0,7.531-3.609,7.531-7.906v-1.62h8.543v27.984H46.583  V42.471c0.109-0.328,0.109-0.687,0-1.02v-4.48C46.583,28.918,42.223,21.893,35.739,18.112z M27.094,14.83  c-12.052,0-21.814,9.755-21.814,21.813v36.584c0,0.911,0.74,1.646,1.647,1.646h76.255c0.912,0,1.645-0.734,1.645-1.646V36.643  c0-12.058-9.754-21.813-21.812-21.813H27.094z"/></svg>
